<svg id="Logo_-_Green" data-name="Logo - Green" xmlns="http://www.w3.org/2000/svg" width="40" height="40" viewBox="0 0 40 40">
    <circle id="Ellipse_15" data-name="Ellipse 15" cx="20" cy="20" r="20" transform="translate(0 0)" fill="#29b473"/>
    <g id="Group_276" data-name="Group 276" transform="translate(6.286 5.714)">
        <rect id="Rectangle_481" data-name="Rectangle 481" width="28" height="28.571" transform="translate(0 0)" fill="#b0bec5" opacity="0"/>
        <g id="Group_275" data-name="Group 275" transform="translate(7.401 4.211)">
        <path id="Path_408" data-name="Path 408" d="M-761.919,183.3l-2.593-1.839,6.066-2.421,2.6,1.839Z" transform="translate(769.279 -165.06)" fill="#ced5d8"/>
        <path id="Path_409" data-name="Path 409" d="M-797.317,200.721l-2.6-1.839,4.755-1.928,2.593,1.838Z" transform="translate(799.929 -180.571)" fill="#ced5d8"/>
        <path id="Path_410" data-name="Path 410" d="M-716.754,117.011l-2.6-1.845v8.58l2.6,1.839Z" transform="translate(730.187 -109.77)" fill="#b0bec5"/>
        <path id="Path_411" data-name="Path 411" d="M-797.317,149.324l-2.6-1.839v8.574l2.6,1.839Z" transform="translate(799.929 -137.748)" fill="#fff"/>
        <path id="Path_412" data-name="Path 412" d="M-796.773,137.9-800,139.191l7.6,5.527,3.232-1.289Z" transform="translate(800 -129.454)" fill="#ced5d8"/>
        <path id="Path_413" data-name="Path 413" d="M-796.773,75-800,76.276v8.461l3.227-1.287Z" transform="translate(800 -75)" fill="#ced5d8"/>
        <path id="Path_414" data-name="Path 414" d="M-797.317,121.346l-2.6-1.839,10.822-4.342,2.6,1.845Z" transform="translate(799.929 -109.77)" fill="#fff"/>
        <path id="Path_415" data-name="Path 415" d="M-796.7,75.006l-3.216,1.277,10.207,7.251,3.214-1.287Z" transform="translate(799.923 -75.005)" fill="#fff"/>
        </g>
    </g>
</svg>